<svg width="253" height="181" viewBox="0 0 253 181" fill="none" xmlns="http://www.w3.org/2000/svg">
<path d="M170.961 162C175.212 158.627 179.083 154.797 182.5 150.584M191.001 137.5C196.116 127.442 199 116.058 199 104C199 63.1309 165.869 30 125 30C84.1309 30 51 63.1309 51 104C51 144.869 84.1309 178 125 178C135.293 178 145.095 175.899 154 172.102" stroke="#DC654C" stroke-width="6" stroke-linecap="round" stroke-linejoin="round"/>
<circle cx="99" cy="96" r="16" stroke="#DC654C" stroke-width="4"/>
<circle cx="150" cy="96" r="16" stroke="#DC654C" stroke-width="4"/>
<circle cx="147" cy="92" r="5.5" stroke="#DC654C" stroke-width="11"/>
<circle cx="95" cy="92" r="5.5" stroke="#DC654C" stroke-width="11"/>
<path d="M114 133C114 145.5 137 147 137 133" stroke="#DC654C" stroke-width="4" stroke-linecap="round"/>
<path d="M176 32.5C176 33.7062 175.247 35.3626 172.694 37.321C170.185 39.2462 166.367 41.1092 161.379 42.728C151.437 45.9548 137.514 48 122 48C106.486 48 92.5631 45.9548 82.621 42.728C77.6334 41.1092 73.8145 39.2462 71.3057 37.321C68.7535 35.3626 68 33.7062 68 32.5C68 31.2938 68.7535 29.6374 71.3057 27.679C73.8145 25.7538 77.6334 23.8908 82.621 22.272C92.5631 19.0452 106.486 17 122 17C137.514 17 151.437 19.0452 161.379 22.272C166.367 23.8908 170.185 25.7538 172.694 27.679C175.247 29.6374 176 31.2938 176 32.5Z" stroke="#DC654C" stroke-width="6"/>
<path d="M190 61.6409C203.5 55.6409 232.6 37.1409 241 11.1409C248.309 -11.4823 252.953 17.7415 246.162 41.6409M230 65.1409C238.053 61.494 243.198 52.0749 246.162 41.6409M246.162 41.6409C247.573 49.892 248.363 64.0533 245.063 75.6409M233.5 92.1409C239.446 88.9391 243.03 82.7782 245.063 75.6409M245.063 75.6409C248.542 91.1409 243.9 123.541 197.5 129.141" stroke="#DC654C" stroke-width="6" stroke-linecap="round"/>
<path d="M62.4683 61.6409C48.9683 55.6409 19.8683 37.1409 11.4683 11.1409C4.15924 -11.4823 -0.484748 17.7415 6.30596 41.6409M22.4683 65.1409C14.4148 61.494 9.27065 52.0749 6.30596 41.6409M6.30596 41.6409C4.8955 49.892 4.10571 64.0533 7.4055 75.6409M18.9683 92.1409C13.022 88.9391 9.438 82.7782 7.4055 75.6409M7.4055 75.6409C3.92642 91.1409 8.56826 123.541 54.9683 129.141" stroke="#DC654C" stroke-width="6" stroke-linecap="round"/>
</svg>
