<svg width="298" height="243" viewBox="0 0 298 243" fill="none" xmlns="http://www.w3.org/2000/svg">
<path d="M193.961 191C198.212 187.627 202.083 183.797 205.5 179.584M214.001 166.5C219.116 156.442 222 145.058 222 133C222 92.1309 188.869 59 148 59C107.131 59 74 92.1309 74 133C74 173.869 107.131 207 148 207C158.293 207 168.095 204.899 177 201.102" stroke="#DC654C" stroke-width="6" stroke-linecap="round" stroke-linejoin="round"/>
<path d="M168.095 139.711C167.728 139.559 167.379 139.401 167.05 139.238L190.959 123.729C190.746 125.916 190.349 128.091 189.684 130.127C188.16 134.797 185.342 138.502 179.961 140.243C175.551 141.669 171.328 141.046 168.095 139.711ZM163.654 136.797C163.64 136.777 163.634 136.767 163.635 136.767C163.635 136.767 163.643 136.777 163.654 136.797Z" stroke="#DC654C" stroke-width="10" stroke-linecap="round" stroke-linejoin="round"/>
<path d="M129.905 139.711C130.272 139.559 130.621 139.401 130.95 139.238L107.041 123.729C107.254 125.916 107.651 128.091 108.316 130.127C109.84 134.797 112.658 138.502 118.039 140.243C122.449 141.669 126.672 141.046 129.905 139.711ZM134.346 136.797C134.36 136.777 134.366 136.767 134.365 136.767C134.365 136.767 134.357 136.777 134.346 136.797Z" stroke="#DC654C" stroke-width="10" stroke-linecap="round" stroke-linejoin="round"/>
<path d="M155 208C137.333 234.833 93.7 269.6 60.5 194C55.1667 180.167 39.2 159.7 18 188.5M18 188.5L9.5 184L4.5 203.5L24 197.5L18 188.5Z" stroke="#DC654C" stroke-width="6" stroke-linecap="round" stroke-linejoin="round"/>
<path d="M183 45.5C190.6 59.5 183.833 85 179.5 96C184.7 101.2 194.333 99.8333 198.5 98.5C207.3 70.9 191.833 51.6667 183 45.5Z" stroke="#DC654C" stroke-width="6" stroke-linecap="round" stroke-linejoin="round"/>
<path d="M115 45.5C107.4 59.5 114.167 85 118.5 96C113.3 101.2 103.667 99.8333 99.5 98.5C90.7 70.9 106.167 51.6667 115 45.5Z" stroke="#DC654C" stroke-width="6" stroke-linecap="round" stroke-linejoin="round"/>
<path d="M216 103.5C222.167 97.1667 232.2 76.9 223 46.5M223 46.5C233 34.6667 261 9.4 293 3C287.833 10.1667 281 29.4 295 49M223 46.5L295 49M223 46.5L266.5 103.5M295 49C268.2 64.2 264.833 91.6667 266.5 103.5M266.5 103.5C256.167 103.333 233 106.3 223 119.5" stroke="#DC654C" stroke-width="6" stroke-linecap="round" stroke-linejoin="round"/>
<path d="M82 103.5C75.8333 97.1667 65.8 76.9 75 46.5M75 46.5C65 34.6667 37 9.4 5 3C10.1667 10.1667 17 29.4 3 49M75 46.5L3 49M75 46.5L31.5 103.5M3 49C29.8 64.2 33.1667 91.6667 31.5 103.5M31.5 103.5C41.8333 103.333 65 106.3 75 119.5" stroke="#DC654C" stroke-width="6" stroke-linecap="round" stroke-linejoin="round"/>
<path d="M133.5 176.5L173 166" stroke="#DC654C" stroke-width="6" stroke-linecap="round" stroke-linejoin="round"/>
</svg>
